Coordinates
version=1
nRows=8
nColumns=46
inDegrees=yes

Units are S.I. units (second, meters, Newtons, ...)
Angles are in degrees.

endheader
time	pelvis_tilt	pelvis_list	pelvis_rotation	pelvis_tx	pelvis_ty	pelvis_tz	bb_angle	bb_tx	bb_ty	bb_tz	hip_flexion_r	hip_adduction_r	hip_rotation_r	knee_angle_r	knee_angle_r_beta	ankle_angle_r	subtalar_angle_r	mtp_angle_r	crank_angle_r	hip_flexion_l	hip_adduction_l	hip_rotation_l	knee_angle_l	knee_angle_l_beta	ankle_angle_l	subtalar_angle_l	mtp_angle_l	crank_angle_l	lumbar_extension	lumbar_bending	lumbar_rotation	arm_flex_r	arm_add_r	arm_rot_r	elbow_flex_r	pro_sup_r	wrist_flex_r	wrist_dev_r	arm_flex_l	arm_add_l	arm_rot_l	elbow_flex_l	pro_sup_l	wrist_flex_l	wrist_dev_l
      2.50500000	    -14.34686632	     -1.19980942	     -1.74515367	      0.09811452	      1.13870343	     -0.26792142	      0.00000000	      0.50000000	      0.00000000	      0.25000000	     67.77101726	     -7.05037949	     -2.54141618	     99.47038017	      1.73608564	     12.02982340	     -5.23977901	      0.00000000	      0.00000000	     57.77558071	     -6.32232730	      2.47719164	     45.43384143	      0.79297012	     -0.24604195	     -3.78326423	      0.00000000	      0.00000000	    -52.59913287	      0.18993897	     -2.17480951	     89.33768604	     -1.75443100	     32.46762367	     55.98563420	     33.78603000	      0.00000000	      0.00000000	     87.17819147	    -19.06951730	     77.68005034	     19.50361928	     47.80747145	      0.00000000	      0.00000000
      2.51000000	    -14.18614757	     -1.32491477	     -1.83879457	      0.09822834	      1.13871287	     -0.26818667	      0.00000000	      0.50000000	      0.00000000	      0.25000000	     68.14203434	     -7.03295799	     -2.54144606	    100.17460356	      1.74837666	     12.26115660	     -5.02491454	      0.00000000	      0.00000000	     56.99035549	     -6.46616574	      2.44173686	     44.65206649	      0.77932558	     -0.52581536	     -3.67218491	      0.00000000	      0.00000000	    -52.73174691	      0.27567318	     -2.09328684	     89.34884194	     -1.64653739	     32.62643602	     56.25862211	     31.95193178	      0.00000000	      0.00000000	     87.17256964	    -19.17429783	     77.42431137	     19.45346179	     48.90834046	      0.00000000	      0.00000000
      2.51500000	    -13.99048067	     -1.42971082	     -1.92543488	      0.09838795	      1.13878445	     -0.26838458	      0.00000000	      0.50000000	      0.00000000	      0.25000000	     68.49469771	     -7.02891937	     -2.53589264	    100.87901466	      1.76067095	     12.47015069	     -4.81214312	      0.00000000	      0.00000000	     56.15977751	     -6.63507092	      2.30403198	     43.85250056	      0.76537052	     -0.86839663	     -3.42258691	      0.00000000	      0.00000000	    -52.89206899	      0.33521308	     -1.95176281	     89.34762822	     -1.54329252	     32.51579253	     56.16945894	     31.46765873	      0.00000000	      0.00000000	     87.07184260	    -19.05054200	     77.31864164	     19.23087780	     48.85325071	      0.00000000	      0.00000000
      2.52000000	    -13.78708469	     -1.53947744	     -1.96108070	      0.09863676	      1.13885873	     -0.26869808	      0.00000000	      0.50000000	      0.00000000	      0.25000000	     68.83537284	     -7.09906871	     -2.55763131	    101.58811049	      1.77304701	     12.71483739	     -4.54153641	      0.00000000	      0.00000000	     55.31479540	     -6.75174833	      2.20759934	     43.06285586	      0.75158862	     -1.18177955	     -3.22610984	      0.00000000	      0.00000000	    -53.07233387	      0.44271369	     -1.81122933	     89.35307752	     -1.65822236	     32.74404740	     56.37565099	     31.02222738	      0.00000000	      0.00000000	     87.02874873	    -19.01219030	     77.28468113	     19.20843783	     48.83561984	      0.00000000	      0.00000000
      2.52500000	    -13.69186020	     -1.77075017	     -2.11563842	      0.09886457	      1.13864856	     -0.26876261	      0.00000000	      0.50000000	      0.00000000	      0.25000000	     69.28798152	     -6.93011486	     -2.63514566	    102.25081085	      1.78461331	     12.82840895	     -4.50179342	      0.00000000	      0.00000000	     54.64383793	     -7.10668104	      2.05156125	     42.38964946	      0.73983895	     -1.38524476	     -2.86518543	      0.00000000	      0.00000000	    -53.11959181	      0.55553572	     -1.49665677	     89.35710868	     -1.48406822	     32.56764376	     56.05708271	     30.98999741	      0.00000000	      0.00000000	     86.78262067	    -18.64631354	     76.21720512	     18.89087188	     48.56778862	      0.00000000	      0.00000000
      2.53000000	    -13.39868321	     -1.75181156	     -2.20603748	      0.09927451	      1.13895060	     -0.26912220	      0.00000000	      0.50000000	      0.00000000	      0.25000000	     69.57923347	     -7.00977421	     -2.50148373	    102.93781439	      1.79660379	     13.01790121	     -4.20910756	      0.00000000	      0.00000000	     53.62093855	     -7.18444221	      1.75848505	     41.55623150	      0.72529306	     -1.59704402	     -2.59054042	      0.00000000	      0.00000000	    -53.38559271	      0.61538124	     -1.72352549	     89.39575767	     -1.25856205	     33.08326180	     55.72883028	     32.25187530	      0.00000000	      0.00000000	     85.79195333	    -19.06813749	     71.81270572	     20.21378179	     47.69368744	      0.00000000	      0.00000000
      2.53500000	    -13.26989990	     -2.05409167	     -2.21307189	      0.09953292	      1.13879690	     -0.26955865	      0.00000000	      0.50000000	      0.00000000	      0.25000000	     69.97741883	     -6.99483515	     -2.70976074	    103.59066802	      1.80799823	     13.13991950	     -4.18658479	      0.00000000	      0.00000000	     52.95089713	     -7.47457188	      1.69082275	     40.91296847	      0.71406601	     -1.84003061	     -2.21470190	      0.00000000	      0.00000000	    -53.48315764	      0.83325927	     -1.04291187	     89.37174980	     -1.63555617	     32.56416671	     55.83795029	     32.39439021	      0.00000000	      0.00000000	     86.40341588	    -18.18548525	     75.18309998	     18.53232409	     47.77129211	      0.00000000	      0.00000000
      2.54000000	    -12.98652151	     -2.10104777	     -2.25941524	      0.10001992	      1.13901289	     -0.27012207	      0.00000000	      0.50000000	      0.00000000	      0.25000000	     70.25948267	     -7.08248070	     -2.63155916	    104.24295439	      1.81938278	     13.33436451	     -3.89052966	      0.00000000	      0.00000000	     51.98245505	     -7.59775802	      1.35268877	     40.15539197	      0.70084380	     -2.03235423	     -1.86983205	      0.00000000	      0.00000000	    -53.75643428	      0.91621154	     -0.96383947	     89.36881725	     -1.80974673	     32.87723366	     56.17117451	     32.10706167	      0.00000000	      0.00000000	     86.58206687	    -18.59023976	     76.69464615	     19.07705702	     47.87707420	      0.00000000	      0.00000000
